<svg fill="none" height="20" viewBox="0 0 20 20" width="20" xmlns="http://www.w3.org/2000/svg"><g fill="white"><path d="m6 2h8c1.1046 0 2 .89543 2 2v12c0 1.1046-.8954 2-2 2h-8c-1.10457 0-2-.8954-2-2v-12c0-1.10457.89543-2 2-2zm0 1c-.55228 0-1 .44772-1 1v12c0 .5523.44772 1 1 1h8c.5523 0 1-.4477 1-1v-12c0-.55229-.4477-1-1-1z"/><path d="m13 6.5c0 .24546-.1769.44961-.4101.49194l-.0899.00806h-5c-.27614 0-.5-.22386-.5-.5 0-.24546.17688-.44961.41012-.49194l.08988-.00806h5c.2761 0 .5.22386.5.5zm0 3.5c0 .2455-.1769.4496-.4101.4919l-.0899.0081h-5c-.27614 0-.5-.2239-.5-.5 0-.24546.17688-.44961.41012-.49194l.08988-.00806h5c.2761 0 .5.22386.5.5zm0 3.5c0 .2455-.1769.4496-.4101.4919l-.0899.0081h-5c-.27614 0-.5-.2239-.5-.5 0-.2455.17688-.4496.41012-.4919l.08988-.0081h5c.2761 0 .5.2239.5.5z"/></g></svg>